<?xml version="1.0" encoding="UTF-8" standalone="no"?>
<svg
   xmlns:dc="http://purl.org/dc/elements/1.1/"
   xmlns:cc="http://creativecommons.org/ns#"
   xmlns:rdf="http://www.w3.org/1999/02/22-rdf-syntax-ns#"
   xmlns:svg="http://www.w3.org/2000/svg"
   xmlns="http://www.w3.org/2000/svg"
   viewBox="0 0 40 40"
   height="40"
   width="40"
   xml:space="preserve"
   version="1.1"
   id="svg2"><metadata
     id="metadata8"><rdf:RDF><cc:Work
         rdf:about=""><dc:format>image/svg+xml</dc:format><dc:type
           rdf:resource="http://purl.org/dc/dcmitype/StillImage" /></cc:Work></rdf:RDF></metadata><defs
     id="defs6"><clipPath
       id="clipPath18"
       clipPathUnits="userSpaceOnUse"><path
         style="clip-rule:evenodd"
         id="path20"
         d="M 80.4883,110.121 C 55.6563,132.105 40,164.223 40,200 c 0,66.273 53.7266,120 120,120 66.273,0 120,-53.727 120,-120 0,-35.352 -15.285,-67.133 -39.609,-89.094 C 228.715,100.363 223.934,56.8555 212.277,29.7031 202.688,7.36719 188.676,-0.417969 160.328,0.25 132.664,0.902344 117.262,7.875 107.691,29.1367 95.5273,56.1563 92.3398,99.6289 80.4883,110.121 l 0,0 z M 60,200 c 0,55.227 44.773,100 100,100 55.227,0 100,-44.773 100,-100 0,-14.039 -2.902,-27.602 -8.312,-40 L 68.3164,160 C 62.9023,172.398 60,185.957 60,200 l 0,0 z m 44.461,-90 c -2.852,6.43 -6.1407,11.047 -10.7149,15.094 -8.1641,7.23 -15.0234,15.644 -20.3789,24.906 l 0,0 173.2658,0 c -5.195,-8.98 -11.805,-17.168 -19.649,-24.25 -4.582,-4.137 -7.937,-8.965 -10.941,-15.75 l -111.582,0 0,0 0,0 z m 6.559,-20 c 0.703,-2.6602 1.421,-5.5078 2.171,-8.5742 0.247,-0.9961 2.77,-11.4727 3.856,-15.8594 l 0,0 91.828,23.0508 c 0.129,0.4648 0.258,0.9258 0.383,1.3828 l -98.238,0 0,0 0,0 z m 14.73,-52.25 c -2.129,4.8047 -4.086,10.5938 -6.176,18.1406 l 0,0 86.356,21.6758 c -1.094,-4.2109 -2.629,-10.1406 -3.16,-12.1484 -0.86,-3.2461 -1.668,-6.2149 -2.45,-8.9492 L 125.75,37.75 l 0,0 0,0 z m 5.492,-8.9297 c 5.512,-6.0312 13.754,-8.2031 29.555,-8.5742 20.699,-0.4883 26.961,3.0469 33.101,17.3477 1,2.3281 1.969,4.8554 2.946,7.6914 l -65.602,-16.4649 0,0 0,0 z M 85,199.527 c -5,0 -4.7773,7.379 -4.3477,10.743 4.6211,36.043 33.2227,64.582 69.2967,69.105 2.504,0.313 10.496,0.625 10.496,-4.375 0,-5 -11.277,-5.832 -11.277,-5.832 -29.984,-4.66 -53.6758,-28.352 -58.336,-58.336 0,0 -0.832,-11.305 -5.832,-11.305 l 0,0 z" /></clipPath><clipPath
       id="clipPath24"
       clipPathUnits="userSpaceOnUse"><path
         id="path26"
         d="M 0,0 320,0 320,320 0,320 0,0 Z" /></clipPath></defs><g
     transform="matrix(1.25,0,0,-1.25,0,40)"
     id="g10"><g
       transform="scale(0.1,0.1)"
       id="g12"><g
         id="g14"><g
           clip-path="url(#clipPath18)"
           id="g16"><g
             clip-path="url(#clipPath24)"
             id="g22"><path
               id="path28"
               style="fill:#000000;fill-opacity:1;fill-rule:nonzero;stroke:none"
               d="M 0,0 330,0 330,370 0,370 0,0 Z" /></g></g></g></g></g></svg>