<?xml version="1.0" encoding="UTF-8" standalone="no"?>
<svg
   xmlns:dc="http://purl.org/dc/elements/1.1/"
   xmlns:cc="http://creativecommons.org/ns#"
   xmlns:rdf="http://www.w3.org/1999/02/22-rdf-syntax-ns#"
   xmlns:svg="http://www.w3.org/2000/svg"
   xmlns="http://www.w3.org/2000/svg"
   viewBox="0 0 40 40"
   height="40"
   width="40"
   xml:space="preserve"
   version="1.1"
   id="svg2"><metadata
     id="metadata8"><rdf:RDF><cc:Work
         rdf:about=""><dc:format>image/svg+xml</dc:format><dc:type
           rdf:resource="http://purl.org/dc/dcmitype/StillImage" /></cc:Work></rdf:RDF></metadata><defs
     id="defs6"><clipPath
       id="clipPath18"
       clipPathUnits="userSpaceOnUse"><path
         style="clip-rule:evenodd"
         id="path20"
         d="m 170,177.32 0,67.68 32.43,32.551 c 3.929,3.933 3.902,10.238 -0.004,14.14 -3.934,3.934 -10.235,3.907 -14.141,0.004 L 170,273.41 l 0,36.66 c 0,5.407 -4.477,9.93 -10,9.93 -5.562,0 -10,-4.445 -10,-9.93 l 0,-37.015 -18.285,18.285 c -3.906,3.902 -10.207,3.93 -14.141,0 -3.906,-3.906 -3.933,-10.211 -0.004,-14.145 l 32.43,-32.55 0,-67.325 -58.6133,33.84 -11.9765,44.36 c -1.4375,5.371 -6.9102,8.5 -12.2461,7.07 -5.3711,-1.442 -8.5,-6.914 -7.0703,-12.246 l 6.6914,-24.981 -31.75,18.332 c -4.6836,2.703 -10.836,1.086 -13.5977,-3.695 -2.7812,-4.816 -1.1523,-10.883 3.5977,-13.625 l 32.0586,-18.508 -24.9805,-6.695 c -5.332,-1.426 -8.5078,-6.875 -7.0703,-12.246 1.4297,-5.332 6.875,-8.512 12.2461,-7.071 L 81.6953,193.66 140,160 81.3867,126.16 36.9844,137.969 c -5.375,1.437 -10.8164,-1.739 -12.2461,-7.074 -1.4414,-5.372 1.7344,-10.817 7.0664,-12.247 l 24.9805,-6.691 -31.75,-18.332 C 20.3516,90.9219 18.6758,84.7813 21.4375,80 24.2148,75.1836 30.2852,73.5625 35.0352,76.3047 L 67.0938,94.8125 60.3984,69.8359 C 58.9688,64.5 62.0977,59.0273 67.4727,57.5898 c 5.332,-1.4296 10.8046,1.6954 12.2461,7.0665 L 91.6953,109.016 150,142.68 150,74.6445 117.57,41.4648 c -3.929,-3.9335 -3.902,-10.2382 0.004,-14.1406 3.934,-3.9336 10.235,-3.9062 14.141,-0.0039 L 150,45.6055 150,9.92969 C 150,4.52344 154.477,0 160,0 c 5.563,0 10,4.44531 10,9.92969 l 0,36.03121 18.285,-18.2851 c 3.906,-3.9024 10.207,-3.9297 14.141,0 3.906,3.9062 3.933,10.2109 0.004,14.1445 L 170,75 l 0,67.68 58.918,-34.02 12.523,-44.6717 c 1.442,-5.3711 6.914,-8.5 12.247,-7.0703 5.375,1.4414 8.503,6.914 7.074,12.2461 l -6.696,24.9804 30.899,-17.8398 c 4.683,-2.7031 10.836,-1.0859 13.598,3.6953 2.781,4.8164 1.152,10.8828 -3.598,13.625 l -31.203,18.016 24.976,6.695 c 5.332,1.426 8.508,6.875 7.071,12.246 -1.43,5.332 -6.875,8.512 -12.246,7.07 L 238.613,126.16 180,160 l 58.918,34.016 44.953,-11.493 c 5.371,-1.437 10.817,1.739 12.246,7.075 1.438,5.371 -1.738,10.816 -7.07,12.246 l -24.981,6.691 30.899,17.84 c 4.683,2.703 6.359,8.844 3.598,13.625 -2.778,4.816 -8.848,6.438 -13.598,3.695 l -31.203,-18.015 6.691,24.976 c 1.43,5.336 -1.699,10.809 -7.07,12.246 -5.336,1.43 -10.809,-1.695 -12.25,-7.066 L 228.613,211.16 170,177.32 l 0,0 z" /></clipPath><clipPath
       id="clipPath24"
       clipPathUnits="userSpaceOnUse"><path
         id="path26"
         d="M 0,0 320,0 320,320 0,320 0,0 Z" /></clipPath></defs><g
     transform="matrix(1.25,0,0,-1.25,0,40)"
     id="g10"><g
       transform="scale(0.1,0.1)"
       id="g12"><g
         id="g14"><g
           clip-path="url(#clipPath18)"
           id="g16"><g
             clip-path="url(#clipPath24)"
             id="g22"><path
               id="path28"
               style="fill:#000000;fill-opacity:1;fill-rule:nonzero;stroke:none"
               d="m 0,0 349.922,0 0,370 L 0,370 0,0 Z" /></g></g></g></g></g></svg>