<?xml version="1.0" encoding="UTF-8" standalone="no"?>
<svg
   xmlns:dc="http://purl.org/dc/elements/1.1/"
   xmlns:cc="http://creativecommons.org/ns#"
   xmlns:rdf="http://www.w3.org/1999/02/22-rdf-syntax-ns#"
   xmlns:svg="http://www.w3.org/2000/svg"
   xmlns="http://www.w3.org/2000/svg"
   viewBox="0 0 40 40"
   height="40"
   width="40"
   xml:space="preserve"
   version="1.1"
   id="svg2"><metadata
     id="metadata8"><rdf:RDF><cc:Work
         rdf:about=""><dc:format>image/svg+xml</dc:format><dc:type
           rdf:resource="http://purl.org/dc/dcmitype/StillImage" /></cc:Work></rdf:RDF></metadata><defs
     id="defs6"><clipPath
       id="clipPath18"
       clipPathUnits="userSpaceOnUse"><path
         id="path20"
         d="m 260,230 0,50.027 C 260,302.016 242.094,320 220.008,320 L 99.9922,320 C 77.9258,320 60,302.074 60,279.957 L 60,40.043 C 60,17.8906 77.9063,0 99.9922,0 L 220.008,0 C 242.074,0 260,17.8984 260,39.9727 L 260,170 l 30,0 c 16.609,0 30,13.418 30,30 0,16.625 -13.41,30 -30,30 l -30,0 z M 240,170 240,39.9727 C 240,28.9531 231.039,20 220.008,20 L 99.9922,20 C 88.9414,20 80,28.9453 80,40.043 l 0,239.914 C 80,291.023 88.9688,300 99.9922,300 l 120.0158,0 C 231.016,300 240,291.004 240,280.027 l 0,-50.027 -28.027,0 c -10.375,17.934 -29.766,30 -51.973,30 -33.137,0 -60,-26.863 -60,-60 0,-33.137 26.863,-60 60,-60 22.207,0 41.598,12.066 51.973,30 l 28.027,0 0,0 z m -39.984,0 C 190.789,157.707 176.129,150 160,150 c -27.613,0 -50,22.387 -50,50 0,27.613 22.387,50 50,50 16.133,0 30.789,-7.711 40.016,-20 L 160,230 c -16.609,0 -30,-13.418 -30,-30 0,-16.625 13.41,-30 30,-30 l 40.016,0 0,0 z M 160,60 c -16.57,0 -30,13.4297 -30,30 0,16.57 13.43,30 30,30 16.57,0 30,-13.43 30,-30 0,-16.5703 -13.43,-30 -30,-30 z m 0,10 c 11.047,0 20,8.9531 20,20 0,11.047 -8.953,20 -20,20 -11.047,0 -20,-8.953 -20,-20 0,-11.0469 8.953,-20 20,-20 z m -10,130 c 0,5.547 4.445,10 10,10 l 130,0 c 5.555,0 10,-4.434 10,-10 0,-5.547 -4.445,-10 -10,-10 l -130,0 c -5.555,0 -10,4.434 -10,10 z" /></clipPath><clipPath
       id="clipPath24"
       clipPathUnits="userSpaceOnUse"><path
         id="path26"
         d="M 0,0 320,0 320,320 0,320 0,0 Z" /></clipPath></defs><g
     transform="matrix(1.25,0,0,-1.25,0,40)"
     id="g10"><g
       transform="scale(0.1,0.1)"
       id="g12"><g
         id="g14"><g
           clip-path="url(#clipPath18)"
           id="g16"><g
             clip-path="url(#clipPath24)"
             id="g22"><path
               id="path28"
               style="fill:#000000;fill-opacity:1;fill-rule:nonzero;stroke:none"
               d="M 10,0 370,0 370,370 10,370 10,0 Z" /></g></g></g></g></g></svg>