<?xml version="1.0" encoding="UTF-8" standalone="no"?>
<svg
   xmlns:dc="http://purl.org/dc/elements/1.1/"
   xmlns:cc="http://creativecommons.org/ns#"
   xmlns:rdf="http://www.w3.org/1999/02/22-rdf-syntax-ns#"
   xmlns:svg="http://www.w3.org/2000/svg"
   xmlns="http://www.w3.org/2000/svg"
   viewBox="0 0 40 40"
   height="40"
   width="40"
   xml:space="preserve"
   version="1.1"
   id="svg2"><metadata
     id="metadata8"><rdf:RDF><cc:Work
         rdf:about=""><dc:format>image/svg+xml</dc:format><dc:type
           rdf:resource="http://purl.org/dc/dcmitype/StillImage" /></cc:Work></rdf:RDF></metadata><defs
     id="defs6"><clipPath
       id="clipPath18"
       clipPathUnits="userSpaceOnUse"><path
         style="clip-rule:evenodd"
         id="path20"
         d="M 40,279.957 C 40,302.074 57.8438,320 79.9023,320 l 160.1957,0 C 262.137,320 280,302.109 280,279.957 L 280,40.043 C 280,17.9258 262.156,0 240.098,0 L 79.9023,0 C 57.8633,0 40,17.8906 40,40.043 l 0,239.914 z m 20,0 0,-239.914 C 60,28.9375 68.9102,20 79.9023,20 L 240.098,20 C 251.086,20 260,28.9492 260,40.043 l 0,239.914 C 260,291.063 251.09,300 240.098,300 L 79.9023,300 C 68.9141,300 60,291.051 60,279.957 Z M 160,150 c -33.137,0 -60,26.863 -60,60 0,33.137 26.863,60 60,60 33.137,0 60,-26.863 60,-60 0,-33.137 -26.863,-60 -60,-60 z m 0,10 c 27.613,0 50,22.387 50,50 0,27.613 -22.387,50 -50,50 -27.613,0 -50,-22.387 -50,-50 0,-27.613 22.387,-50 50,-50 z m -30,-45 c 0,2.762 2.277,5 4.91,5 l 50.18,0 c 2.711,0 4.91,-2.32 4.91,-5 0,-2.762 -2.277,-5 -4.91,-5 l -50.18,0 c -2.711,0 -4.91,2.32 -4.91,5 z M 110,95 c 0,2.7617 2.277,5 5.098,5 l 89.804,0 c 2.817,0 5.098,-2.3203 5.098,-5 0,-2.7617 -2.277,-5 -5.098,-5 l -89.804,0 C 112.281,90 110,92.3203 110,95 Z m 0,-20 c 0,2.7617 2.277,5 5.098,5 l 89.804,0 c 2.817,0 5.098,-2.3203 5.098,-5 0,-2.7617 -2.277,-5 -5.098,-5 l -89.804,0 C 112.281,70 110,72.3203 110,75 Z m 20,-20 c 0,2.7617 2.277,5 4.91,5 l 50.18,0 c 2.711,0 4.91,-2.3203 4.91,-5 0,-2.7617 -2.277,-5 -4.91,-5 l -50.18,0 c -2.711,0 -4.91,2.3203 -4.91,5 z m 0,155 c 0,-10 10,-10 10,0 0,10 10,20 20,20 10,0 10,10 0,10 -15,0 -30,-15 -30,-30 z" /></clipPath><clipPath
       id="clipPath24"
       clipPathUnits="userSpaceOnUse"><path
         id="path26"
         d="M 0,0 320,0 320,320 0,320 0,0 Z" /></clipPath></defs><g
     transform="matrix(1.25,0,0,-1.25,0,40)"
     id="g10"><g
       transform="scale(0.1,0.1)"
       id="g12"><g
         id="g14"><g
           clip-path="url(#clipPath18)"
           id="g16"><g
             clip-path="url(#clipPath24)"
             id="g22"><path
               id="path28"
               style="fill:#000000;fill-opacity:1;fill-rule:nonzero;stroke:none"
               d="M 0,0 330,0 330,370 0,370 0,0 Z" /></g></g></g></g></g></svg>