<?xml version="1.0" encoding="UTF-8" standalone="no"?>
<svg
   xmlns:dc="http://purl.org/dc/elements/1.1/"
   xmlns:cc="http://creativecommons.org/ns#"
   xmlns:rdf="http://www.w3.org/1999/02/22-rdf-syntax-ns#"
   xmlns:svg="http://www.w3.org/2000/svg"
   xmlns="http://www.w3.org/2000/svg"
   viewBox="0 0 40 40"
   height="40"
   width="40"
   xml:space="preserve"
   version="1.1"
   id="svg2"><metadata
     id="metadata8"><rdf:RDF><cc:Work
         rdf:about=""><dc:format>image/svg+xml</dc:format><dc:type
           rdf:resource="http://purl.org/dc/dcmitype/StillImage" /></cc:Work></rdf:RDF></metadata><defs
     id="defs6"><clipPath
       id="clipPath18"
       clipPathUnits="userSpaceOnUse"><path
         style="clip-rule:evenodd"
         id="path20"
         d="m 40,120 c 0,62.629 53.1133,90.395 110.031,183.121 C 155,310 165,310 170.242,302.613 227.238,209.578 280,182.543 280,120 280,53.7266 226.273,0 160,0 93.7266,0 40,53.7266 40,120 Z M 149.664,269.871 C 126.852,240.52 75.5273,168.512 74.3594,166.621 64.4531,150.535 60,136.563 60,120 60,64.7734 104.773,20 160,20 c 55.227,0 100,44.7734 100,100 0,16.563 -4.426,30.441 -14.301,46.426 -0.855,1.379 -52.433,73.867 -75.195,103.39 -5.566,7.223 -15.254,7.243 -20.84,0.055 z M 160,44.5547 c 0,-5 -7.379,-4.7813 -10.742,-4.3477 -36.043,4.6172 -64.5822,33.2227 -69.1057,69.293 -0.3125,2.508 -0.625,10.5 4.375,10.5 5,0 5.8321,-11.281 5.8321,-11.281 4.6601,-29.9846 28.3476,-53.676 58.3356,-58.3323 0,0 11.305,-0.832 11.305,-5.832 z" /></clipPath><clipPath
       id="clipPath24"
       clipPathUnits="userSpaceOnUse"><path
         id="path26"
         d="M 0,0 320,0 320,320 0,320 0,0 Z" /></clipPath></defs><g
     transform="matrix(1.25,0,0,-1.25,0,40)"
     id="g10"><g
       transform="scale(0.1,0.1)"
       id="g12"><g
         id="g14"><g
           clip-path="url(#clipPath18)"
           id="g16"><g
             clip-path="url(#clipPath24)"
             id="g22"><path
               id="path28"
               style="fill:#000000;fill-opacity:1;fill-rule:nonzero;stroke:none"
               d="m 0,0 330,0 0,358.219 -330,0 L 0,0 Z" /></g></g></g></g></g></svg>