<?xml version="1.0" encoding="UTF-8" standalone="no"?>
<svg
   xmlns:dc="http://purl.org/dc/elements/1.1/"
   xmlns:cc="http://creativecommons.org/ns#"
   xmlns:rdf="http://www.w3.org/1999/02/22-rdf-syntax-ns#"
   xmlns:svg="http://www.w3.org/2000/svg"
   xmlns="http://www.w3.org/2000/svg"
   viewBox="0 0 40 40"
   height="40"
   width="40"
   xml:space="preserve"
   version="1.1"
   id="svg2"><metadata
     id="metadata8"><rdf:RDF><cc:Work
         rdf:about=""><dc:format>image/svg+xml</dc:format><dc:type
           rdf:resource="http://purl.org/dc/dcmitype/StillImage" /></cc:Work></rdf:RDF></metadata><defs
     id="defs6"><clipPath
       id="clipPath18"
       clipPathUnits="userSpaceOnUse"><path
         style="clip-rule:evenodd"
         id="path20"
         d="M 0,0 0,320 320,320 320,0 0,0 Z" /></clipPath><clipPath
       id="clipPath24"
       clipPathUnits="userSpaceOnUse"><path
         style="clip-rule:evenodd"
         id="path26"
         d="m 19.9375,57.0078 -0.0547,22.8985 68.1016,65.7657 c 17.8396,18.297 26.9926,52.062 20.8166,76.832 l -7.36,29.508 c -0.402,1.617 0.688,4.976 1.969,6.047 l 45.309,37.839 c 2.449,2.047 8.051,4.09 11.168,4.086 l 40.156,-0.027 c 2.773,0 7.879,-2.117 9.871,-4.109 l 85.934,-85.934 c 2.043,-2.039 4.109,-7.027 4.109,-9.871 l 0.027,-40.156 c 0.004,-2.449 -2.136,-7.008 -4.086,-8.637 L 250.59,113.41 c -2.012,-1.68 -6.883,-3.012 -9.406,-2.586 l -21.098,3.543 c -25.133,4.223 -58.547,-6.672 -76.313,-24.8397 l -63.8667,-69.6445 -22.8985,0.0547 0,0 86.5272,86.5275 -7.07,7.07 L 46.4297,23.5 23.5,46.4297 l 90.035,90.0353 -7.07,7.07 -86.5275,-86.5272 0,0 z M 224.055,309.992 c -5.739,5.738 -15.93,9.961 -23.996,9.965 l -40.161,0.027 c -7.82,0.008 -17.96,-3.687 -24,-8.734 L 90.5898,273.41 C 83.418,267.418 79.7852,256.215 82.0352,247.176 l 7.3593,-29.508 c 4.5,-18.043 -2.7265,-44.695 -15.7304,-58.035 L 2.72266,86.8633 -0.128906,83.9414 -0.117188,79.8594 -0.046875,49.9297 -0.0351563,45.8008 2.88281,42.8828 42.8828,2.88281 45.8008,-0.0351563 49.9297,-0.046875 79.8594,-0.117188 84.0781,-0.128906 87.0313,2.89063 158.074,75.543 c 13.188,13.4883 40.024,22.2383 58.699,19.1015 l 21.094,-3.5468 c 8.297,-1.3907 19.063,1.5468 25.543,6.9609 l 45.309,37.8394 c 6.496,5.426 11.273,15.61 11.265,24 l -0.027,40.161 c -0.004,8.14 -4.18,18.211 -9.965,23.996 l -85.937,85.937 0,0 z m -40.414,-64.844 c 7.808,7.809 20.41,7.872 28.324,-0.043 l 21.129,-21.128 c 7.836,-7.836 7.91,-20.461 0.043,-28.329 -7.809,-7.808 -20.41,-7.871 -28.324,0.043 L 183.68,216.82 c -7.832,7.836 -7.907,20.461 -0.039,28.328 l 0,0 z m 7.07,-7.074 c -3.934,-3.929 -3.914,-10.226 0.043,-14.183 l 21.129,-21.129 c 3.98,-3.981 10.25,-3.977 14.183,-0.039 3.93,3.929 3.914,10.226 -0.043,14.183 l -21.128,21.129 c -3.981,3.981 -10.25,3.977 -14.184,0.039 l 0,0 z" /></clipPath><clipPath
       id="clipPath30"
       clipPathUnits="userSpaceOnUse"><path
         id="path32"
         d="M 0,0 320,0 320,320 0,320 0,0 Z" /></clipPath></defs><g
     transform="matrix(1.25,0,0,-1.25,0,40)"
     id="g10"><g
       transform="scale(0.1,0.1)"
       id="g12"><g
         id="g14"><g
           clip-path="url(#clipPath18)"
           id="g16"><g
             clip-path="url(#clipPath24)"
             id="g22"><g
               clip-path="url(#clipPath30)"
               id="g28"><path
                 id="path34"
                 style="fill:#000000;fill-opacity:1;fill-rule:nonzero;stroke:none"
                 d="M 175.555,429.203 424.211,180.547 109.359,-134.305 -139.301,114.352" /></g></g></g></g></g></g></svg>