<?xml version="1.0" encoding="UTF-8" standalone="no"?>
<svg
   xmlns:dc="http://purl.org/dc/elements/1.1/"
   xmlns:cc="http://creativecommons.org/ns#"
   xmlns:rdf="http://www.w3.org/1999/02/22-rdf-syntax-ns#"
   xmlns:svg="http://www.w3.org/2000/svg"
   xmlns="http://www.w3.org/2000/svg"
   viewBox="0 0 40 40"
   height="40"
   width="40"
   xml:space="preserve"
   version="1.1"
   id="svg2"><metadata
     id="metadata8"><rdf:RDF><cc:Work
         rdf:about=""><dc:format>image/svg+xml</dc:format><dc:type
           rdf:resource="http://purl.org/dc/dcmitype/StillImage" /></cc:Work></rdf:RDF></metadata><defs
     id="defs6"><clipPath
       id="clipPath18"
       clipPathUnits="userSpaceOnUse"><path
         id="path20"
         d="M 60,129.941 60,80 C 60,35.8711 95.832,0 139.98,0 l 40.04,0 C 224.176,0 260,35.8242 260,80 l 0,49.941 C 260,146.539 246.605,160 230.051,160 L 89.9492,160 C 73.3945,160 60,146.531 60,129.941 Z m 20,0 C 80,135.512 84.4648,140 89.9492,140 l 140.1018,0 c 5.484,0 9.949,-4.484 9.949,-10.059 L 240,80 C 240,46.8711 213.133,20 180.02,20 l -40.04,0 C 106.883,20 80,46.9102 80,80 l 0,49.941 z m 30,120.09 c 0,27.571 22.426,49.969 50,49.969 27.609,0 50,-22.383 50,-49.969 L 210,220 c 0,0 0,-10 10,-10 10,0 10,10 10,10 l 0,30.031 C 230,288.664 198.652,320 160,320 121.387,320 90,288.652 90,250.031 L 90,160 l 20,0 0,90.031 z M 160,50 c -16.57,0 -30,13.4297 -30,30 0,16.5703 13.43,30 30,30 16.57,0 30,-13.4297 30,-30 0,-16.5703 -13.43,-30 -30,-30 z m 0,10 c 11.047,0 20,8.9531 20,20 0,11.0469 -8.953,20 -20,20 -11.047,0 -20,-8.9531 -20,-20 0,-11.0469 8.953,-20 20,-20 z" /></clipPath><clipPath
       id="clipPath24"
       clipPathUnits="userSpaceOnUse"><path
         id="path26"
         d="M 0,0 320,0 320,320 0,320 0,0 Z" /></clipPath></defs><g
     transform="matrix(1.25,0,0,-1.25,0,40)"
     id="g10"><g
       transform="scale(0.1,0.1)"
       id="g12"><g
         id="g14"><g
           clip-path="url(#clipPath18)"
           id="g16"><g
             clip-path="url(#clipPath24)"
             id="g22"><path
               id="path28"
               style="fill:#000000;fill-opacity:1;fill-rule:nonzero;stroke:none"
               d="M 10,0 310,0 310,370 10,370 10,0 Z" /></g></g></g></g></g></svg>