<?xml version="1.0" encoding="UTF-8" standalone="no"?>
<svg
   xmlns:dc="http://purl.org/dc/elements/1.1/"
   xmlns:cc="http://creativecommons.org/ns#"
   xmlns:rdf="http://www.w3.org/1999/02/22-rdf-syntax-ns#"
   xmlns:svg="http://www.w3.org/2000/svg"
   xmlns="http://www.w3.org/2000/svg"
   viewBox="0 0 40 40"
   height="40"
   width="40"
   xml:space="preserve"
   version="1.1"
   id="svg2"><metadata
     id="metadata8"><rdf:RDF><cc:Work
         rdf:about=""><dc:format>image/svg+xml</dc:format><dc:type
           rdf:resource="http://purl.org/dc/dcmitype/StillImage" /></cc:Work></rdf:RDF></metadata><defs
     id="defs6"><clipPath
       id="clipPath18"
       clipPathUnits="userSpaceOnUse"><path
         style="clip-rule:evenodd"
         id="path20"
         d="m 160,0 c 88.367,0 160,71.6328 160,160 0,88.367 -71.633,160 -160,160 C 71.6328,320 0,248.367 0,160 0,71.6328 71.6328,0 160,0 Z m 0,20 C 82.6797,20 20,82.6797 20,160 20,237.32 82.6797,300 160,300 237.32,300 300,237.32 300,160 300,82.6797 237.32,20 160,20 Z m -10,220.023 c 0,5.512 4.438,9.977 10,9.977 5.523,0 10,-4.465 10,-9.977 l 0,-70.046 c 0,-5.512 -4.437,-9.977 -10,-9.977 -5.523,0 -10,4.465 -10,9.977 l 0,70.046 z M 214.59,225 c -4.59,-4.77 -2.856,-13.352 0,-17.031 C 224.508,195.188 230,179.34 230,162.555 230,122.359 198.531,90 160,90 c -38.531,0 -70,32.359 -70,72.555 0,17.031 5.6563,33.093 15.84,45.961 2.887,3.648 4.16,11.812 -0.84,16.484 -5,4.672 -14.8437,-4.074 -14.8437,-4.074 C 77.5547,205 70,184.684 70,162.555 70,111.438 110.293,70 160,70 c 49.707,0 90,41.438 90,92.555 0,21.808 -7.336,41.855 -19.609,57.675 0,0 -11.211,9.54 -15.801,4.77 z" /></clipPath><clipPath
       id="clipPath24"
       clipPathUnits="userSpaceOnUse"><path
         id="path26"
         d="M 0,0 320,0 320,320 0,320 0,0 Z" /></clipPath></defs><g
     transform="matrix(1.25,0,0,-1.25,0,40)"
     id="g10"><g
       transform="scale(0.1,0.1)"
       id="g12"><g
         id="g14"><g
           clip-path="url(#clipPath18)"
           id="g16"><g
             clip-path="url(#clipPath24)"
             id="g22"><path
               id="path28"
               style="fill:#000000;fill-opacity:1;fill-rule:nonzero;stroke:none"
               d="M 0,0 370,0 370,370 0,370 0,0 Z" /></g></g></g></g></g></svg>