<?xml version="1.0" encoding="UTF-8" standalone="no"?>
<svg
   xmlns:dc="http://purl.org/dc/elements/1.1/"
   xmlns:cc="http://creativecommons.org/ns#"
   xmlns:rdf="http://www.w3.org/1999/02/22-rdf-syntax-ns#"
   xmlns:svg="http://www.w3.org/2000/svg"
   xmlns="http://www.w3.org/2000/svg"
   viewBox="0 0 40 40"
   height="40"
   width="40"
   xml:space="preserve"
   version="1.1"
   id="svg2"><metadata
     id="metadata8"><rdf:RDF><cc:Work
         rdf:about=""><dc:format>image/svg+xml</dc:format><dc:type
           rdf:resource="http://purl.org/dc/dcmitype/StillImage" /></cc:Work></rdf:RDF></metadata><defs
     id="defs6"><clipPath
       id="clipPath18"
       clipPathUnits="userSpaceOnUse"><path
         id="path20"
         d="m 182.098,30 13.144,-12.9297 c 3.969,-3.9062 3.969,-10.23436 0,-14.14061 -3.969,-3.906253 -10.406,-3.906253 -14.375,0 L 150.371,32.9297 c -1.984,1.9531 -2.976,4.5117 -2.976,7.0703 0,2.5586 0.992,5.1172 2.976,7.0703 l 30.496,30 c 3.969,3.9063 10.406,3.9063 14.375,0 3.969,-3.9062 3.969,-10.2344 0,-14.1406 L 182.098,50 272.02,50 c 25.843,0 34.742,15.1094 21.945,37.3242 -3.77,6.5391 -3.77,6.5391 -15.07,26.1558 -5.133,8.915 -5.133,8.915 -9.559,16.602 -2.77,4.805 -1.055,10.906 3.832,13.629 4.883,2.727 11.086,1.035 13.855,-3.77 4.426,-7.683 4.426,-7.683 9.563,-16.597 11.297,-19.617 11.297,-19.617 15.066,-26.1565 C 332.113,61.6641 313.469,30 272.02,30 l -89.922,0 0,0 z m 66.527,176.602 4.984,18.308 c 1.454,5.332 7.028,8.5 12.45,7.07 5.425,-1.429 8.644,-6.914 7.191,-12.25 l -11.164,-40.98 c -0.727,-2.664 -2.484,-4.789 -4.734,-6.07 -2.254,-1.282 -5.004,-1.715 -7.715,-1 l -41.66,10.98 c -5.422,1.43 -8.641,6.914 -7.188,12.25 1.453,5.332 7.027,8.5 12.453,7.07 l 17.305,-4.562 -40.692,70.641 c -4.25,7.375 -4.25,7.375 -8.5,14.754 -12.765,22.164 -29.757,22.144 -42.511,0 L 124.32,257.605 c -5.445,-9.457 -5.445,-9.457 -9.984,-17.335 -2.766,-4.805 -8.969,-6.493 -13.856,-3.77 -4.8823,2.723 -6.6011,8.828 -3.8316,13.633 4.5396,7.879 4.5396,7.879 9.9846,17.332 10.89,18.906 10.89,18.906 14.519,25.211 20.539,35.648 57.332,35.691 77.891,0 4.25,-7.379 4.25,-7.379 8.5,-14.758 l 41.082,-71.316 0,0 0,0 z m -191.5547,-25.176 -18,-4.746 c -5.4219,-1.43 -10.9961,1.738 -12.4492,7.07 -1.4531,5.336 1.7617,10.82 7.1875,12.25 l 41.6562,10.98 c 2.711,0.715 5.461,0.282 7.7149,-1 2.2539,-1.281 4.0078,-3.406 4.7344,-6.07 l 11.164,-40.98 c 1.4529,-5.336 -1.7656,-10.821 -7.1875,-12.25 -5.4258,-1.43 -10.9961,1.738 -12.4492,7.07 L 74.6445,171.363 42.5508,115.648 C 29.5,92.9922 29.5,92.9922 26.2344,87.3242 13.4141,65.0664 22.3594,50 48.332,50 l 50.7774,0 c 5.6136,0 10.1636,-4.4766 10.1636,-10 0,-5.5234 -4.55,-10 -10.1636,-10 L 48.332,30 C 6.79297,30 -11.9609,61.5859 8.54688,97.1875 11.8086,102.852 11.8086,102.852 24.8633,125.508 l 32.207,55.918 0,0 z" /></clipPath><clipPath
       id="clipPath24"
       clipPathUnits="userSpaceOnUse"><path
         id="path26"
         d="M 0,0 320,0 320,320 0,320 0,0 Z" /></clipPath></defs><g
     transform="matrix(1.25,0,0,-1.25,0,40)"
     id="g10"><g
       transform="scale(0.1,0.1)"
       id="g12"><g
         id="g14"><g
           clip-path="url(#clipPath18)"
           id="g16"><g
             clip-path="url(#clipPath24)"
             id="g22"><path
               id="path28"
               style="fill:#000000;fill-opacity:1;fill-rule:nonzero;stroke:none"
               d="m 0,0 370,0 0,369.43 -370,0 L 0,0 Z" /></g></g></g></g></g></svg>