<?xml version="1.0" encoding="UTF-8" standalone="no"?>
<svg
   xmlns:dc="http://purl.org/dc/elements/1.1/"
   xmlns:cc="http://creativecommons.org/ns#"
   xmlns:rdf="http://www.w3.org/1999/02/22-rdf-syntax-ns#"
   xmlns:svg="http://www.w3.org/2000/svg"
   xmlns="http://www.w3.org/2000/svg"
   viewBox="0 0 40 40"
   height="40"
   width="40"
   xml:space="preserve"
   version="1.1"
   id="svg2"><metadata
     id="metadata8"><rdf:RDF><cc:Work
         rdf:about=""><dc:format>image/svg+xml</dc:format><dc:type
           rdf:resource="http://purl.org/dc/dcmitype/StillImage" /></cc:Work></rdf:RDF></metadata><defs
     id="defs6"><clipPath
       id="clipPath18"
       clipPathUnits="userSpaceOnUse"><path
         style="clip-rule:evenodd"
         id="path20"
         d="M 100,202.211 C 69.8984,182.582 50,148.617 50,110 50,49.25 99.25,0 160,0 c 60.75,0 110,49.25 110,110 0,38.617 -19.898,72.582 -50,92.211 l 0,57.801 C 220,293.18 193.137,320 160,320 c -33.07,0 -60,-26.855 -60,-59.988 l 0,-57.801 0,0 0,0 z m 100,-11.566 c 29.633,-14.727 50,-45.309 50,-80.645 0,-49.707 -40.293,-90 -90,-90 -49.707,0 -90,40.293 -90,90 0,35.336 20.3672,65.918 50,80.645 l 0,69.367 c 0,22.058 17.949,39.988 40,39.988 22.105,0 40,-17.883 40,-39.988 l 0,-69.367 0,0 0,0 z m -60,-8.543 C 111.086,173.496 90,146.711 90,115 c 0,-38.6602 31.34,-70 70,-70 38.66,0 70,31.3398 70,70 0,31.711 -21.086,58.496 -50,67.102 l 0,77.839 c 0,11.09 -8.953,20.059 -20,20.059 -11.121,0 -20,-8.98 -20,-20.059 l 0,-77.839 0,0 0,0 z m 30,-7.93 C 198.379,169.41 220,144.73 220,115 220,81.8633 193.137,55 160,55 c -33.137,0 -60,26.8633 -60,60 0,29.73 21.621,54.41 50,59.172 l 0,85.769 c 0,5.594 4.438,10.059 10,10.059 5.52,0 10,-4.492 10,-10.059 l 0,-85.769 0,0 0,0 z M 170,80 c 0,-5 -10,-5 -10,-5 -22.09,0 -40,17.9102 -40,40 0,0 0,10 5,10 5,0 5,-6.277 5,-10 0,-10 15,-30 30,-30 7.078,0 10,0 10,-5 l 0,0 z" /></clipPath><clipPath
       id="clipPath24"
       clipPathUnits="userSpaceOnUse"><path
         id="path26"
         d="M 0,0 320,0 320,320 0,320 0,0 Z" /></clipPath></defs><g
     transform="matrix(1.25,0,0,-1.25,0,40)"
     id="g10"><g
       transform="scale(0.1,0.1)"
       id="g12"><g
         id="g14"><g
           clip-path="url(#clipPath18)"
           id="g16"><g
             clip-path="url(#clipPath24)"
             id="g22"><path
               id="path28"
               style="fill:#000000;fill-opacity:1;fill-rule:nonzero;stroke:none"
               d="M 0,0 320,0 320,370 0,370 0,0 Z" /></g></g></g></g></g></svg>