<?xml version="1.0" encoding="UTF-8" standalone="no"?>
<svg
   xmlns:dc="http://purl.org/dc/elements/1.1/"
   xmlns:cc="http://creativecommons.org/ns#"
   xmlns:rdf="http://www.w3.org/1999/02/22-rdf-syntax-ns#"
   xmlns:svg="http://www.w3.org/2000/svg"
   xmlns="http://www.w3.org/2000/svg"
   viewBox="0 0 40 40"
   height="40"
   width="40"
   xml:space="preserve"
   version="1.1"
   id="svg2"><metadata
     id="metadata8"><rdf:RDF><cc:Work
         rdf:about=""><dc:format>image/svg+xml</dc:format><dc:type
           rdf:resource="http://purl.org/dc/dcmitype/StillImage" /></cc:Work></rdf:RDF></metadata><defs
     id="defs6"><clipPath
       id="clipPath18"
       clipPathUnits="userSpaceOnUse"><path
         style="clip-rule:evenodd"
         id="path20"
         d="m 160,0 c 88.367,0 160,71.6328 160,160 0,88.367 -71.633,160 -160,160 C 71.6328,320 0,248.367 0,160 0,71.6328 71.6328,0 160,0 l 0,0 z m 0,20 C 82.6797,20 20,82.6797 20,160 20,237.32 82.6797,300 160,300 237.32,300 300,237.32 300,160 300,82.6797 237.32,20 160,20 l 0,0 z m 0,20 C 93.7266,40 40,93.7266 40,160 40,226.273 93.7266,280 160,280 226.273,280 280,226.273 280,160 280,93.7266 226.273,40 160,40 l 0,0 z m 0,10 c 60.75,0 110,49.25 110,110 0,60.75 -49.25,110 -110,110 C 99.25,270 50,220.75 50,160 50,99.25 99.25,50 160,50 l 0,0 z m -21.215,88.785 c 11.719,-11.715 30.711,-11.715 42.43,0 11.715,11.719 56.566,84.856 49.496,91.926 -7.07,7.07 -80.207,-37.781 -91.926,-49.496 -11.715,-11.719 -11.715,-30.711 0,-42.43 l 0,0 z m 14.145,14.145 c 3.906,-3.907 10.234,-3.907 14.14,0 3.907,3.906 3.907,10.234 0,14.14 -3.906,3.907 -10.234,3.907 -14.14,0 -3.907,-3.906 -3.907,-10.234 0,-14.14 l 0,0 z" /></clipPath><clipPath
       id="clipPath24"
       clipPathUnits="userSpaceOnUse"><path
         id="path26"
         d="M 0,0 320,0 320,320 0,320 0,0 Z" /></clipPath><clipPath
       id="clipPath34"
       clipPathUnits="userSpaceOnUse"><path
         id="path36"
         d="m 319,45 1,0 0,40 -1,0 0,-40 z" /></clipPath></defs><g
     transform="matrix(1.25,0,0,-1.25,0,40)"
     id="g10"><g
       transform="scale(0.1,0.1)"
       id="g12"><g
         id="g14"><g
           clip-path="url(#clipPath18)"
           id="g16"><g
             clip-path="url(#clipPath24)"
             id="g22"><path
               id="path28"
               style="fill:#000000;fill-opacity:1;fill-rule:nonzero;stroke:none"
               d="M 0,0 370,0 370,370 0,370 0,0 Z" /></g></g></g><g
         id="g30"><g
           clip-path="url(#clipPath34)"
           id="g32"><path
             id="path38"
             style="fill:#000000;fill-opacity:1;fill-rule:nonzero;stroke:none"
             d="M 495.555,429.203 744.211,180.547 429.359,-134.305 180.699,114.352" /></g></g></g></g></svg>