<?xml version="1.0" encoding="UTF-8" standalone="no"?>
<svg
   xmlns:dc="http://purl.org/dc/elements/1.1/"
   xmlns:cc="http://creativecommons.org/ns#"
   xmlns:rdf="http://www.w3.org/1999/02/22-rdf-syntax-ns#"
   xmlns:svg="http://www.w3.org/2000/svg"
   xmlns="http://www.w3.org/2000/svg"
   viewBox="0 0 40 40"
   height="40"
   width="40"
   xml:space="preserve"
   version="1.1"
   id="svg2"><metadata
     id="metadata8"><rdf:RDF><cc:Work
         rdf:about=""><dc:format>image/svg+xml</dc:format><dc:type
           rdf:resource="http://purl.org/dc/dcmitype/StillImage" /></cc:Work></rdf:RDF></metadata><defs
     id="defs6"><clipPath
       id="clipPath18"
       clipPathUnits="userSpaceOnUse"><path
         style="clip-rule:evenodd"
         id="path20"
         d="M 0,0 0,320 320,320 320,0 0,0 Z" /></clipPath><clipPath
       id="clipPath24"
       clipPathUnits="userSpaceOnUse"><path
         style="clip-rule:evenodd"
         id="path26"
         d="m 199.883,217.355 c 3.82,5.958 9.515,14.235 18.437,27.098 C 244.621,283.902 224.566,320 170,320 107.371,320 69.0977,263.508 101.652,200.773 l 0,0 c -5.9372,3.821 -14.1559,9.477 -26.8161,18.258 -39.4492,26.301 -75.546838,6.246 -75.546838,-48.32 0,-63.078 57.304738,-101.4532 120.577938,-67.637 C 116.043,97.0859 110.293,88.7227 101.152,75.5469 74.8555,36.0977 94.9102,0 149.473,0 c 62.664,0 100.945,56.5508 68.297,119.324 5.925,-3.82 14.117,-9.453 26.683,-18.172 C 283.902,74.8555 320,94.9102 320,149.473 c 0,62.929 -57.031,101.265 -120.117,67.882 l 0,0 z m -4.07,-26.019 C 251.012,230.766 300,201.949 300,149.473 c 0,-38.77 -18.445,-49.016 -44.453,-31.68 -25.25,17.617 -34.594,23.848 -44.055,27.633 -2.691,1.074 -5.375,1.929 -8.109,2.57 1.055,3.82 1.617,7.848 1.617,12.004 0,13.266 -9.187,31.336 -9.187,31.336 z m -21.766,20.156 c 3.785,9.461 10.016,18.805 27.633,44.055 C 219.016,281.555 208.77,300 170,300 c -52.473,0 -81.2891,-48.988 -41.863,-104.187 0,0 18.906,9.187 31.863,9.187 3.977,0 7.836,-0.516 11.508,-1.484 0.64,2.691 1.484,5.332 2.539,7.976 z m -66.25,-36.734 c -9.4611,3.785 -18.8048,10.015 -44.0548,27.633 -26.0078,17.336 -44.4531,7.089 -44.4531,-31.68 0,-52.473 48.9882,-81.293 104.1879,-41.863 0,0 -8.477,18.129 -8.477,31.152 0,4.164 0.566,8.199 1.625,12.027 -2.988,0.657 -5.902,1.563 -8.828,2.731 z m 37.629,-66.25 C 141.641,99.0469 135.41,89.7031 117.793,64.4531 100.457,38.4453 110.703,20 149.473,20 c 52.476,0 81.293,48.9883 41.863,104.188 0,0 -18.313,-9.188 -31.336,-9.188 -4.156,0 -8.184,0.563 -12.004,1.617 -0.641,-2.734 -1.496,-5.418 -2.57,-8.109 z M 160,125 c -19.328,0 -35,15.672 -35,35 0,19.328 15.672,35 35,35 19.328,0 35,-15.672 35,-35 0,-19.328 -15.672,-35 -35,-35 z" /></clipPath><clipPath
       id="clipPath30"
       clipPathUnits="userSpaceOnUse"><path
         id="path32"
         d="M 0,0 320,0 320,320 0,320 0,0 Z" /></clipPath></defs><g
     transform="matrix(1.25,0,0,-1.25,0,40)"
     id="g10"><g
       transform="scale(0.1,0.1)"
       id="g12"><g
         id="g14"><g
           clip-path="url(#clipPath18)"
           id="g16"><g
             clip-path="url(#clipPath24)"
             id="g22"><g
               clip-path="url(#clipPath30)"
               id="g28"><path
                 id="path34"
                 style="fill:#000000;fill-opacity:1;fill-rule:nonzero;stroke:none"
                 d="M 0,0 370,0 370,370 0,370 0,0 Z" /></g></g></g></g></g></g></svg>