<?xml version="1.0" encoding="UTF-8" standalone="no"?>
<svg
   xmlns:dc="http://purl.org/dc/elements/1.1/"
   xmlns:cc="http://creativecommons.org/ns#"
   xmlns:rdf="http://www.w3.org/1999/02/22-rdf-syntax-ns#"
   xmlns:svg="http://www.w3.org/2000/svg"
   xmlns="http://www.w3.org/2000/svg"
   viewBox="0 0 40 40"
   height="40"
   width="40"
   xml:space="preserve"
   version="1.1"
   id="svg2"><metadata
     id="metadata8"><rdf:RDF><cc:Work
         rdf:about=""><dc:format>image/svg+xml</dc:format><dc:type
           rdf:resource="http://purl.org/dc/dcmitype/StillImage" /></cc:Work></rdf:RDF></metadata><defs
     id="defs6"><clipPath
       id="clipPath18"
       clipPathUnits="userSpaceOnUse"><path
         style="clip-rule:evenodd"
         id="path20"
         d="M 237.953,129.188 C 235.324,129.723 232.66,130 230,130 c 0,6.926 -0.879,13.645 -2.535,20.055 l 0,0 C 256.695,151.344 280,175.449 280,205 c 0,30.375 -24.625,55 -55,55 -29.551,0 -53.656,-23.305 -54.945,-52.535 -6.41,1.656 -13.129,2.535 -20.055,2.535 -3.113,0 -6.203,-0.184 -9.254,-0.543 0.75,1.766 2.137,3.266 4.477,5.223 -0.836,-0.703 3.672,2.988 4.914,4.105 4.215,3.781 7.254,7.797 9.527,13.278 2.859,6.906 3.164,11.906 2.301,20.296 -0.527,5.161 -0.516,6.829 0.226,8.809 0.481,1.285 1.329,2.559 2.704,3.937 1.378,1.375 2.652,2.223 3.937,2.704 1.981,0.742 3.648,0.754 8.809,0.226 8.39,-0.863 13.39,-0.558 20.297,2.301 5.48,2.273 9.496,5.312 13.277,9.527 1.117,1.242 4.808,5.75 4.105,4.914 3.356,4.012 5.371,5.223 9.68,5.223 4.309,0 6.324,-1.211 9.68,-5.223 -0.703,0.836 2.988,-3.672 4.105,-4.914 3.781,-4.215 7.797,-7.254 13.278,-9.527 6.906,-2.859 11.906,-3.164 20.296,-2.301 5.161,0.528 6.829,0.516 8.809,-0.226 1.285,-0.481 2.559,-1.329 3.937,-2.704 1.375,-1.378 2.223,-2.652 2.704,-3.937 0.742,-1.98 0.754,-3.648 0.226,-8.809 -0.863,-8.39 -0.558,-13.39 2.301,-20.296 2.273,-5.481 5.312,-9.497 9.527,-13.278 1.242,-1.117 5.75,-4.808 4.914,-4.105 4.012,-3.356 5.223,-5.371 5.223,-9.68 0,-4.309 -1.211,-6.324 -5.223,-9.68 0.836,0.703 -3.672,-2.988 -4.914,-4.105 -4.215,-3.781 -7.254,-7.797 -9.527,-13.277 -2.859,-6.907 -3.164,-11.907 -2.301,-20.297 0.528,-5.161 0.516,-6.828 -0.226,-8.809 -0.481,-1.285 -1.329,-2.559 -2.704,-3.937 -1.378,-1.375 -2.652,-2.223 -3.937,-2.704 -1.98,-0.742 -3.648,-0.753 -8.809,-0.226 -8.39,0.863 -13.39,0.558 -20.296,-2.301 -5.993,-2.484 -9.848,-5.543 -14.11,-10.476 z m 10.434,-3.524 C 265.953,117.309 280,97.7695 280,75 280,44.625 255.375,20 225,20 L 70,20 C 31.3398,20 0,51.3398 0,90 c 0,38.66 40,70 75,70 9.6406,23.344 30.488,41.109 55.102,47.461 0.546,6.281 3.308,10.375 8.711,14.891 -0.665,-0.555 3.601,2.937 4.644,3.875 3.172,2.843 5.316,5.675 6.965,9.664 2.09,5.035 2.305,8.562 1.598,15.449 -0.692,6.723 -0.672,9.394 0.808,13.34 1,2.672 2.641,5.14 4.996,7.496 2.356,2.355 4.824,3.996 7.496,4.996 3.946,1.48 6.618,1.5 13.34,0.808 6.887,-0.707 10.414,-0.492 15.449,1.598 3.989,1.649 6.821,3.793 9.664,6.965 0.938,1.043 4.43,5.309 3.875,4.645 5.082,6.078 9.629,8.812 17.352,8.812 7.723,0 12.27,-2.734 17.352,-8.812 -0.555,0.664 2.937,-3.602 3.875,-4.645 2.843,-3.172 5.675,-5.316 9.664,-6.965 5.035,-2.09 8.562,-2.305 15.449,-1.598 6.723,0.692 9.394,0.672 13.34,-0.808 2.672,-1 5.14,-2.641 7.496,-4.996 2.355,-2.356 3.996,-4.824 4.996,-7.496 1.48,-3.946 1.5,-6.617 0.808,-13.34 -0.707,-6.887 -0.492,-10.414 1.598,-15.449 1.649,-3.989 3.793,-6.821 6.965,-9.664 1.043,-0.938 5.309,-4.43 4.645,-3.875 C 317.266,217.27 320,212.723 320,205 c 0,-7.723 -2.734,-12.27 -8.812,-17.352 0.664,0.555 -3.602,-2.937 -4.645,-3.875 -3.172,-2.843 -5.316,-5.675 -6.965,-9.664 -2.09,-5.035 -2.305,-8.562 -1.598,-15.449 0.692,-6.722 0.672,-9.394 -0.808,-13.34 -1,-2.672 -2.641,-5.14 -4.996,-7.496 -2.356,-2.355 -4.824,-3.996 -7.496,-4.996 -3.946,-1.48 -6.617,-1.5 -13.34,-0.808 -6.887,0.707 -10.414,0.492 -15.449,-1.598 -3.039,-1.258 -5.289,-2.688 -7.504,-4.758 z M 225,157.902 C 216.91,179.641 199.641,196.91 177.902,205 l 2.098,0 c 0,24.852 20.148,45 45,45 24.852,0 45,-20.148 45,-45 0,-24.852 -20.148,-45 -45,-45 l 0,-2.098 0,0 z M 92.1602,146.027 C 99.2891,171.809 122.852,190 150,190 c 33.137,0 60,-26.863 60,-60 0,-3 -0.219,-5.973 -0.652,-8.898 -0.973,-6.555 4.582,-12.227 11.156,-11.387 1.48,0.191 2.98,0.285 4.496,0.285 19.328,0 35,-15.6719 35,-35 0,-19.3281 -15.672,-35 -35,-35 L 70,40 c -27.6133,0 -50,22.3867 -50,50 0,27.613 22.3867,50 50,50 3.5469,0 7.043,-0.367 10.4453,-1.09 5.1719,-1.097 10.3086,2.02 11.7149,7.117 z" /></clipPath><clipPath
       id="clipPath24"
       clipPathUnits="userSpaceOnUse"><path
         id="path26"
         d="M 0,0 320,0 320,320 0,320 0,0 Z" /></clipPath></defs><g
     transform="matrix(1.25,0,0,-1.25,0,40)"
     id="g10"><g
       transform="scale(0.1,0.1)"
       id="g12"><g
         id="g14"><g
           clip-path="url(#clipPath18)"
           id="g16"><g
             clip-path="url(#clipPath24)"
             id="g22"><path
               id="path28"
               style="fill:#000000;fill-opacity:1;fill-rule:nonzero;stroke:none"
               d="M 0,0 370,0 370,350 0,350 0,0 Z" /></g></g></g></g></g></svg>